<?xml version="1.0" encoding="utf-8"?>
<!-- Generator: Adobe Illustrator 23.0.1, SVG Export Plug-In . SVG Version: 6.00 Build 0)  -->
<svg version="1.1" id="Layer_1" xmlns="http://www.w3.org/2000/svg" xmlns:xlink="http://www.w3.org/1999/xlink" x="0px" y="0px"
	 viewBox="0 0 512 512" style="enable-background:new 0 0 512 512;" xml:space="preserve">
<style type="text/css">
	.st0{fill:#99DAD6;}
	.st1{fill:#C1E1F4;}
	.st2{fill:#C1F7F2;}
	.st3{fill:#93DBD2;}
	.st4{fill:#F92B2B;}
	.st5{fill:#21245B;}
	.st6{fill:#FED13A;}
	.st7{fill:#F13A3A;}
	.st8{fill:#FBECBB;}
	.st9{fill:#333333;}
</style>
<g>
	<rect x="152.7" y="43.1" class="st0" width="327.3" height="403.2"/>
</g>
<g>
	<rect x="111.7" y="43.1" class="st1" width="327.3" height="403.2"/>
</g>
<g>
	<g>
		<polygon class="st2" points="396.9,43.1 69.6,43.1 69.6,446.2 297.4,446.2 396.9,346.7 		"/>
	</g>
	<polygon class="st3" points="396.9,346.7 297.4,446.2 297.4,346.7 	"/>
</g>
<g>
	<path class="st4" d="M385.6,37.6C385.6,18.5,370.1,3,351,3s-34.6,15.5-34.6,34.6v20.7c0,11.5,9.3,20.8,20.8,20.8
		c11.5,0,20.8-9.3,20.8-20.8v-16c0-3-2.4-5.4-5.4-5.4s-5.4,2.4-5.4,5.4v16c0,5.5-4.5,10-10,10c-5.5,0-10-4.5-10-10V37.6
		c0-13.1,10.6-23.7,23.7-23.7c13.1,0,23.7,10.6,23.7,23.7v5.6h10.8V37.6z"/>
</g>
<path class="st5" d="M361.9,138.5h-246c-4.6,0-8.3-3.7-8.3-8.3v-1.8c0-4.6,3.7-8.3,8.3-8.3h246c4.6,0,8.3,3.7,8.3,8.3v1.8
	C370.2,134.7,366.5,138.5,361.9,138.5z"/>
<path class="st5" d="M361.9,184.6h-246c-4.6,0-8.3-3.7-8.3-8.3v-1.8c0-4.6,3.7-8.3,8.3-8.3h246c4.6,0,8.3,3.7,8.3,8.3v1.8
	C370.2,180.9,366.5,184.6,361.9,184.6z"/>
<path class="st5" d="M361.9,279h-246c-4.6,0-8.3-3.7-8.3-8.3v-1.8c0-4.6,3.7-8.3,8.3-8.3h246c4.6,0,8.3,3.7,8.3,8.3v1.8
	C370.2,275.3,366.5,279,361.9,279z"/>
<path class="st5" d="M232.8,326.2h-116c-4.6,0-8.3-3.7-8.3-8.3V316c0-4.6,3.7-8.3,8.3-8.3h116c4.6,0,8.3,3.7,8.3,8.3v1.8
	C241.2,322.5,237.4,326.2,232.8,326.2z"/>
<path class="st5" d="M361.9,231.8h-246c-4.6,0-8.3-3.7-8.3-8.3v-1.8c0-4.6,3.7-8.3,8.3-8.3h246c4.6,0,8.3,3.7,8.3,8.3v1.8
	C370.2,228.1,366.5,231.8,361.9,231.8z"/>
<rect x="126.9" y="321" transform="matrix(0.6967 0.7173 -0.7173 0.6967 337.7468 18.9647)" class="st6" width="39.1" height="175.8"/>
<path class="st7" d="M65.1,504.6l-16.7-17.2c-2.9-3-2.8-7.8,0.2-10.7l21.2-20.6l27.2,28l-21.2,20.6C72.8,507.7,68,507.6,65.1,504.6z
	"/>
<polygon class="st8" points="241.1,317.1 195.8,333.6 223.2,361.8 "/>
<polygon class="st9" points="241.1,317.1 230,321.1 236.7,328 "/>
</svg>
