<?xml version="1.0" encoding="utf-8"?>
<!-- Generator: Adobe Illustrator 23.0.1, SVG Export Plug-In . SVG Version: 6.00 Build 0)  -->
<svg version="1.1" id="Layer_1" xmlns="http://www.w3.org/2000/svg" xmlns:xlink="http://www.w3.org/1999/xlink" x="0px" y="0px"
	 viewBox="0 0 512 512" style="enable-background:new 0 0 512 512;" xml:space="preserve">
<style type="text/css">
	.st0{fill:none;}
	.st1{fill:#C1E1F4;}
	.st2{fill:#9FBBC9;}
	.st3{fill:#19248E;}
	.st4{fill:#FFFFFF;}
</style>
<g>
	<g>
	</g>
	<g>
	</g>
	<g>
	</g>
	<g>
	</g>
	<g>
	</g>
	<g>
	</g>
	<g>
	</g>
	<g>
	</g>
	<g>
	</g>
	<g>
	</g>
	<g>
	</g>
	<g>
	</g>
	<g>
	</g>
	<g>
	</g>
	<g>
	</g>
</g>
<g>
	<path class="st0" d="M357.9,154.4c17.5,17.5,46.1,17.5,63.6,0c17.5-17.5,17.5-46.1,0-63.6c-4.5-4.5-9.8-7.9-15.4-10.1l-59.5,54.8
		C348.7,142.4,352.5,148.9,357.9,154.4z"/>
	<path class="st1" d="M463.9,48.3c-3.7-3.7-7.4-7.1-11.4-10.3l-46.4,42.7c5.6,2.2,10.9,5.5,15.4,10.1c17.5,17.5,17.5,46.1,0,63.6
		c-17.5,17.5-46.1,17.5-63.6,0c-5.5-5.5-9.2-12-11.3-18.9L0,454.8V497c0,8.3,6.7,15,15,15h84.9c4,0,7.8-1.6,10.6-4.4l21.2-21.2
		c3.2-3.2,4.8-7.8,4.3-12.3l-2.6-22.8l31.6-3c7.2-0.7,12.9-6.3,13.5-13.5l3-31.6l22.8,2.7c4.2,0.6,8.5-0.9,11.7-3.7
		c3.2-2.9,5-6.9,5-11.2V363h27.4c4,0,7.8-1.6,10.6-4.4l38.5-38c58.8,19,122.4,4.9,166.4-39C528.3,217.3,528.3,112.6,463.9,48.3z"/>
	<path class="st2" d="M357.9,90.7c13-13,32.1-16.4,48.2-10.1l46.4-42.7c-64.8-53.8-161.4-50.3-222.1,10.3
		c-44,43.9-59.2,108.7-40.2,167.5L4.4,401.5c-2.8,2.8-4.4,6.6-4.4,10.6v42.7l346.6-319.3C342.1,120.1,345.8,102.8,357.9,90.7z"/>
</g>
<circle class="st3" cx="367.5" cy="375.5" r="123.5"/>
<rect x="305.5" y="378.3" transform="matrix(0.7071 -0.7071 0.7071 0.7071 -203.609 348.577)" class="st4" width="26.9" height="83.5"/>
<rect x="378" y="307" transform="matrix(0.7071 0.7071 -0.7071 0.7071 390.788 -161.3498)" class="st4" width="24.4" height="168.1"/>
</svg>
