<?xml version="1.0" encoding="utf-8"?>
<!-- Generator: Adobe Illustrator 23.0.1, SVG Export Plug-In . SVG Version: 6.00 Build 0)  -->
<svg version="1.1" id="Layer_1" xmlns="http://www.w3.org/2000/svg" xmlns:xlink="http://www.w3.org/1999/xlink" x="0px" y="0px"
	 viewBox="0 0 512 512" style="enable-background:new 0 0 512 512;" xml:space="preserve">
<style type="text/css">
	.st0{fill:#FF5050;}
	.st1{fill:#FFFFFF;}
	.st2{opacity:0.43;fill:#353535;}
	.st3{fill:#F92B2B;}
</style>
<g>
	<path class="st0" d="M381.7,0H240.3c-8,0-15.7,3.2-21.4,8.9l-100,100c-5.7,5.7-8.9,13.4-8.9,21.4v141.4c0,8,3.2,15.7,8.9,21.4
		l100,100c5.7,5.7,13.4,8.9,21.4,8.9h141.4c8,0,15.7-3.2,21.4-8.9l100-100c5.7-5.7,8.9-13.4,8.9-21.4V130.3c0-8-3.2-15.7-8.9-21.4
		l-100-100C397.4,3.2,389.7,0,381.7,0z"/>
</g>
<g>
	<path class="st1" d="M144.1,230.5c1.7,11.6,12.7,18.9,28.4,18.9c14.9,0,25.8-8.1,25.8-19c0-9.4-6.9-15.4-22.2-19.2l-14.2-3.7
		c-20-5.1-28.7-14.1-28.7-29.8c0-18.8,15.7-31.5,39.1-31.5c21.4,0,37.3,12.7,38.5,30.6h-13.9c-1.9-11.3-11.3-18.1-25.1-18.1
		c-14.7,0-24.5,7.4-24.5,18.6c0,8.7,6.1,13.6,21.3,17.6l11.6,3.1c22.9,5.8,32.1,14.6,32.1,30.9c0,20.3-16,33.3-41.3,33.3
		c-23.5,0-39.6-12.4-41.1-31.5H144.1z"/>
	<path class="st1" d="M254.8,259.4v-98.2h-35.7v-12.4h85.1v12.4h-35.7v98.2H254.8z"/>
	<path class="st1" d="M408.7,204.1c0,35.3-19,58-50.6,58c-31.7,0-50.8-22.5-50.8-58c0-35.6,19.6-57.9,50.8-57.9
		C389.5,146.2,408.7,168.6,408.7,204.1z M321.4,204.1c0,27.4,13.6,45.2,36.7,45.2c22.7,0,36.4-17.8,36.4-45.2
		c0-27.7-13.8-45.2-36.4-45.2C335.6,158.9,321.4,176.4,321.4,204.1z"/>
	<path class="st1" d="M465,148.8c20.9,0,35.4,14.7,35.4,35.8c0,20.7-14.8,35.3-35.6,35.3H437v39.5h-13.8V148.8H465z M437,207.7h24.4
		c15.7,0,24.8-8.4,24.8-23.1c0-15.2-8.8-23.5-24.8-23.5H437V207.7z"/>
</g>
<path class="st2" d="M162.2,336.4c0,0-6.1-246.9,195.8-336.4h-119c0,0-12-0.8-19.4,8.2c-7.5,9.1-97.4,97.4-97.4,97.4
	s-8.8,7.8-10.1,12.3s-2.1,2.8-2.1,17.4s0.1,140.6,0.1,140.6s0.7,9.8,7,15.3S162.2,336.4,162.2,336.4z"/>
<g>
	<g>
		<g>
			<path class="st3" d="M183,304.4c-18.7-48.2-72.9-72.2-121.1-53.5S-10.3,323.7,8.4,372c5.2,13.3,13.1,24.8,22.8,34.1l-0.1,0
				l0.8,0.6c3.3,3,6.7,5.8,10.4,8.4L163,512.4l23.9-153.3c1-4.3,1.7-8.7,2.1-13.2l0.2-1l-0.1,0C190,331.6,188.1,317.8,183,304.4z
				 M105.7,362.8c-12.6,4.9-26.8-1.4-31.6-14c-4.9-12.6,1.4-26.8,14-31.6c12.6-4.9,26.8,1.4,31.6,14
				C124.5,343.7,118.3,357.9,105.7,362.8z"/>
		</g>
	</g>
</g>
<path class="st2" d="M127.8,250.3c0,0-75.8,70.3-49.3,194l-39.4-31.5c0,0-41.9-27.7-36.5-84.7s54.8-75.3,54.8-75.3
	S89.5,236.5,127.8,250.3z"/>
</svg>
