<?xml version="1.0" encoding="utf-8"?>
<!-- Generator: Adobe Illustrator 23.0.1, SVG Export Plug-In . SVG Version: 6.00 Build 0)  -->
<svg version="1.1" id="Layer_1" xmlns="http://www.w3.org/2000/svg" xmlns:xlink="http://www.w3.org/1999/xlink" x="0px" y="0px"
	 viewBox="0 0 512 512" style="enable-background:new 0 0 512 512;" xml:space="preserve">
<style type="text/css">
	.st0{fill:#71D7FF;}
	.st1{fill:#FFFFFF;}
	.st2{fill:#F92B2B;}
	.st3{opacity:0.24;fill:#62747A;enable-background:new    ;}
	.st4{opacity:0.49;}
	.st5{fill:#62747A;}
</style>
<g>
	<g>
		<g>
			<path class="st0" d="M490.1,36H59.9C47.8,36,38,46.6,38,59.6v229.7c19-13.6,41.7-21.6,66.2-21.6c46.3,0,86.6,28.4,106.5,69.9
				h279.4c12.1,0,21.9-10.6,21.9-23.6V59.6C512,46.6,502.2,36,490.1,36z"/>
		</g>
	</g>
	<polygon class="st1" points="379.6,193.9 201,105.4 201,282.4 	"/>
</g>
<g>
	<g>
		<circle class="st2" cx="105" cy="389" r="103"/>
	</g>
	<polygon class="st1" points="157.5,374.4 105.2,322.1 105.2,322.1 105.2,322.1 52.9,374.4 62.6,384.1 98.3,348.3 98.3,455 112,455 
		112,348.3 147.8,384.1 	"/>
</g>
<path class="st3" d="M101.1,267.9L228.7,36H63.3c0,0-11-0.5-17.6,5.6S37.9,54.5,37.9,63S38,289.5,38,289.5S64.7,268.5,101.1,267.9z"
	/>
<g class="st4">
	<path class="st5" d="M98.5,348.3l-35.8,35.8l-9.7-9.7l52.3-52.3l0,0l8.1,8.1l27.6-37.6c-11.2-4.2-23.3-6.4-35.9-6.4
		c-56.9,0-103,46.1-103,103c0,23.8,8.1,45.7,21.7,63.2l74.6-101.7v-2.4H98.5z"/>
</g>
</svg>
