<?xml version="1.0" encoding="utf-8"?>
<!-- Generator: Adobe Illustrator 26.0.2, SVG Export Plug-In . SVG Version: 6.00 Build 0)  -->
<svg version="1.1" id="Layer_1" xmlns="http://www.w3.org/2000/svg" xmlns:xlink="http://www.w3.org/1999/xlink" x="0px" y="0px"
	 viewBox="0 0 400.9 513.39" style="enable-background:new 0 0 400.9 513.39;" xml:space="preserve">
<style type="text/css">
	.st0{fill:#3D74A0;}
	.st1{fill:#263E50;}
	.st2{fill:#EEF0E9;}
	.st3{fill:#252424;}
	.st4{fill:#C1D9AB;}
	.st5{fill:#A2CA81;}
	.st6{fill:#75B743;}
</style>
<path class="st0" d="M367.25,47.6c-2.62-7.49-6.37-22.09-29.21-34.82S198.74,0,198.74,0S82.26,0.05,59.42,12.78
	C36.58,25.51,32.84,40.11,30.22,47.6c0,0-44.56,22.47-25.46,40.06h193.98h193.98C411.81,70.06,367.25,47.6,367.25,47.6z"/>
<rect x="26.85" y="87.99" class="st1" width="38.19" height="227.28"/>
<rect x="334.63" y="87.99" class="st1" width="38.19" height="227.28"/>
<path class="st0" d="M392.64,450.11H9.28c-4.57,0-8.27-3.7-8.27-8.27V323.53c0-4.57,3.7-8.27,8.27-8.27h383.36
	c4.57,0,8.27,3.7,8.27,8.27v118.31C400.9,446.41,397.2,450.11,392.64,450.11z"/>
<circle class="st2" cx="60.96" cy="380.52" r="32.01"/>
<circle class="st2" cx="342.58" cy="380.52" r="32.01"/>
<path class="st3" d="M103.51,450.11H73.98h-0.8H43.65c0,0-2.56,62.19,29.53,63.23v0.05c0.14,0,0.26-0.02,0.4-0.02
	c0.14,0,0.26,0.02,0.4,0.02v-0.05C106.07,512.3,103.51,450.11,103.51,450.11z"/>
<path class="st3" d="M355.43,450.11H325.9h-0.8h-29.53c0,0-2.56,62.19,29.53,63.23v0.05c0.14,0,0.26-0.02,0.4-0.02
	c0.14,0,0.26,0.02,0.4,0.02v-0.05C357.99,512.3,355.43,450.11,355.43,450.11z"/>
<path class="st4" d="M146.1,413.91h-15.72c-3.62,0-6.55-2.93-6.55-6.55v-61.65c0-3.62,2.93-6.55,6.55-6.55h15.72
	c3.62,0,6.55,2.93,6.55,6.55v61.65C152.66,410.98,149.72,413.91,146.1,413.91z"/>
<path class="st5" d="M209.63,413.91h-15.72c-3.62,0-6.55-2.93-6.55-6.55V268.2c0-3.62,2.93-6.55,6.55-6.55h15.72
	c3.62,0,6.55,2.93,6.55,6.55v139.15C216.19,410.98,213.25,413.91,209.63,413.91z"/>
<path class="st6" d="M273.41,413.91h-15.72c-3.62,0-6.55-2.93-6.55-6.55v-193.7c0-3.62,2.93-6.55,6.55-6.55h15.72
	c3.62,0,6.55,2.93,6.55,6.55v193.7C279.96,410.98,277.03,413.91,273.41,413.91z"/>
<g>
	<path class="st6" d="M305.41,235.91L305.41,235.91c-5.58,0-10.24-4.17-10.91-9.71c-1.75-14.56-8.36-31.39-29.54-31.39
		c-21.17,0-27.78,16.83-29.54,31.39c-0.67,5.53-5.33,9.71-10.91,9.71h0c-6.59,0-11.72-5.77-10.93-12.32
		c3.83-31.63,22.79-50.77,51.38-50.77c28.59,0,47.54,19.14,51.37,50.77C317.13,230.14,312,235.91,305.41,235.91z"/>
</g>
<g>
</g>
<g>
</g>
<g>
</g>
<g>
</g>
<g>
</g>
<g>
</g>
</svg>
