<?xml version="1.0" encoding="utf-8"?>
<!-- Generator: Adobe Illustrator 26.0.2, SVG Export Plug-In . SVG Version: 6.00 Build 0)  -->
<svg version="1.1" id="Layer_1" xmlns="http://www.w3.org/2000/svg" xmlns:xlink="http://www.w3.org/1999/xlink" x="0px" y="0px"
	 viewBox="0 0 512 476.11" style="enable-background:new 0 0 512 476.11;" xml:space="preserve">
<style type="text/css">
	.st0{fill:#FFFFFF;}
</style>
<path class="st0" d="M511.21,460.34c-0.11-2.27-3.18-56.28-36.01-110.86c-19.46-32.34-45.33-58.16-76.9-76.74
	c-21.69-12.76-46.04-22.05-72.82-27.81c37.7-23.35,62.87-65.08,62.87-112.59C388.34,59.37,328.97,0,256,0
	c-72.97,0-132.34,59.37-132.34,132.34c0,47.51,25.17,89.25,62.87,112.59c-26.78,5.77-51.13,15.05-72.82,27.81
	c-31.57,18.58-57.45,44.4-76.91,76.74C3.97,404.06,0.91,458.07,0.79,460.34L0,476.11h512L511.21,460.34z M153.69,132.34
	c0-56.42,45.9-102.31,102.31-102.31s102.31,45.9,102.31,102.31S312.42,234.65,256,234.65S153.69,188.75,153.69,132.34z
	 M32.77,446.08c3.1-18.19,10.83-49.66,29.76-81.12c38.6-64.16,103.54-96.82,193.01-97.05l0.39,0l0.53,0
	c88.99,0.24,153.72,32.56,192.41,96.07c19.25,31.61,27.16,63.66,30.32,82.1H32.77z"/>
<g>
</g>
<g>
</g>
<g>
</g>
<g>
</g>
<g>
</g>
<g>
</g>
</svg>
