<?xml version="1.0" encoding="utf-8"?>
<!-- Generator: Adobe Illustrator 26.0.2, SVG Export Plug-In . SVG Version: 6.00 Build 0)  -->
<svg version="1.1" id="Layer_1" xmlns="http://www.w3.org/2000/svg" xmlns:xlink="http://www.w3.org/1999/xlink" x="0px" y="0px"
	 viewBox="0 0 1683.19 1116.55" style="enable-background:new 0 0 1683.19 1116.55;" xml:space="preserve">
<style type="text/css">
	.st0{fill:none;stroke:#CCCCCB;stroke-width:11;stroke-miterlimit:10;}
	.st1{fill:none;stroke:#CCCCCB;stroke-width:7;stroke-miterlimit:10;}
</style>
<circle class="st0" cx="553.29" cy="559.7" r="24.83"/>
<circle class="st0" cx="1536.43" cy="459.58" r="24.83"/>
<path class="st0" d="M578.13,567.57l287.1,147.79c0,0,59.36,25.44,106.6,0c47.25-25.44,264.09-169.6,264.09-169.6l133.26,73.9
	l310.12,310.12"/>
<polyline class="st0" points="971.83,715.37 1138.1,850.74 1369.18,619.66 1519.47,477.72 "/>
<line class="st0" x1="1138.1" y1="850.74" x2="1351.91" y2="1064.56"/>
<line class="st0" x1="534.65" y1="576.1" x2="2.75" y2="883.75"/>
<line class="st0" x1="142.02" y1="121.29" x2="374.85" y2="668.53"/>
<path class="st0" d="M6.74,500.35l581.65-264.57c0,0,23.66-4.98,38.2-47.37s0-67.11,0-67.11"/>
<path class="st0" d="M731.76,646.66c0,0,58.36,48.11,60.78,111.1c2.42,62.99,4.85,305.52,4.85,305.52"/>
<path class="st0" d="M553.29,534.87c0,0,3.03-77.53,24.83-92.07c21.81-14.54,261.96-227.75,261.96-227.75v-99.34"/>
<line class="st0" x1="578.13" y1="442.8" x2="501.08" y2="275.49"/>
<line class="st0" x1="1561.26" y1="459.58" x2="1677.41" y2="459.58"/>
<path class="st0" d="M1235.92,545.77"/>
<line class="st0" x1="1235.92" y1="545.77" x2="840.08" y2="215.05"/>
<polyline class="st0" points="1536.43,434.75 1536.43,121.29 1071.66,408.53 "/>
<path class="st0" d="M169.46,787.33c0,0,1.63,95.21,69.47,96.43s556.24,0,556.24,0"/>
<line class="st1" x1="319.89" y1="700.32" x2="405.96" y2="883.75"/>
<path class="st0" d="M430.64,636.26"/>
<line class="st1" x1="367.36" y1="801.49" x2="495.55" y2="757.93"/>
<path class="st1" d="M528.46,829.64h79.26c0,0,29.4,2.84,30.73,21.1c1.34,18.26,16.03,33.55,16.03,33.55"/>
<line class="st1" x1="633.04" y1="595.84" x2="795.17" y2="877.02"/>
<path class="st1" d="M528.46,687.28l79.26,142.36l88.97-42.31c0,0-20.82-54.61-42.2-94.7c-21.38-40.08-49.44-28.4-49.44-28.4
	L528.46,687.28l-46.14-80.91"/>
<line class="st1" x1="696.69" y1="787.33" x2="746.12" y2="883.75"/>
<line class="st1" x1="667.14" y1="718.01" x2="696.69" y2="706.22"/>
<line class="st1" x1="578.13" y1="545.77" x2="902.93" y2="267.56"/>
<polyline class="st1" points="667.14,469.52 610.02,416.71 559.44,330.7 "/>
<polyline class="st1" points="828.6,331.23 764.58,281.84 716.87,218.42 "/>
<line class="st1" x1="638.58" y1="442.8" x2="795.17" y2="305.44"/>
<path class="st1" d="M648.72,603.92l136.71-119.5c0,0,30.61-22.94,11.96-49.67c-18.64-26.72-26.21-54.34-26.21-54.34"/>
<polyline class="st1" points="790.23,423.59 938.77,297.5 1213.37,320.95 1336.2,461.78 1432.67,559.7 1679.3,821.15 "/>
<path class="st1" d="M740.53,523.67l155.8,82.7c0,0,40.08,24.8,60.13,15.44c20.04-9.35,115.2-98.15,115.2-98.15L848.51,374.12"/>
<line class="st1" x1="1009.9" y1="477.72" x2="1049.99" y2="394.91"/>
<line class="st1" x1="944.43" y1="623.92" x2="938.77" y2="725.69"/>
<line class="st1" x1="1023.78" y1="567.27" x2="1104.57" y2="632.12"/>
<line class="st1" x1="699.31" y1="559.7" x2="797.39" y2="619.21"/>
<polyline class="st1" points="76.95,929.79 294.61,929.79 339.15,884.29 "/>
<path class="st1" d="M437.8,632.12l115.49,251.64l-32.42,46.03H294.61v84.41c0,0-1.1,49.05-36.18,50.36H76.95V840.84"/>
<line class="st1" x1="520.87" y1="929.79" x2="795.17" y2="929.79"/>
<line class="st1" x1="681.91" y1="884.29" x2="681.91" y2="929.79"/>
<polyline class="st1" points="294.61,999.95 422.88,999.95 422.88,929.79 "/>
<path class="st1" d="M422.88,999.95c0,0,123.42-5.34,155.24,26.72c31.82,32.07,70.6,37.89,70.6,37.89"/>
<line class="st1" x1="1536.43" y1="121.29" x2="1602.27" y2="16.53"/>
<path class="st1" d="M633.04,929.79v69.83c0,0-1.34,37.75,34.1,39.53c35.44,1.78,129.99,0,129.99,0"/>
<line class="st1" x1="726.07" y1="929.79" x2="726.07" y2="1039.92"/>
<line class="st1" x1="1055.9" y1="663.55" x2="1196.81" y2="792.03"/>
<line class="st1" x1="1165.48" y1="592.29" x2="1288.52" y2="700.32"/>
<line class="st1" x1="1126.35" y1="727.79" x2="1227" y2="646.3"/>
<path class="st1" d="M797.14,916.21h267.04c0,0,55.97,1.78,64.54-21.38l21.23-32.25"/>
<line class="st1" x1="987.63" y1="916.21" x2="987.63" y2="1064.56"/>
<line class="st1" x1="987.63" y1="1008.85" x2="1143.15" y2="1008.85"/>
<path class="st1" d="M986.8,862.58H877.12c-12.76,0-23.1-10.34-23.1-23.1v-36.67c0-12.76,10.34-23.1,23.1-23.1H986.8
	c12.76,0,23.1,10.34,23.1,23.1v36.67C1009.9,852.24,999.56,862.58,986.8,862.58z"/>
<path class="st1" d="M1005.52,787.33"/>
<line class="st1" x1="1001.75" y1="783.68" x2="1026.92" y2="760.22"/>
<polyline class="st1" points="1001.75,856.97 1087.4,916.24 1176.68,1064.56 "/>
<polyline class="st1" points="882.52,862.58 882.52,916.24 882.52,1063.28 "/>
<polyline class="st1" points="862.17,783.68 764.58,663.55 836.97,574.86 "/>
<line class="st1" x1="854.02" y1="821.15" x2="790.23" y2="821.15"/>
<polyline class="st1" points="828.6,821.15 828.6,916.21 882.52,999.95 "/>
<path class="st1" d="M1270.84,718.01l81.08,65.67c0,0,18.75,22.19,46.81,3.65c28.06-18.54,68.79-69.32,68.79-69.32l56.62-61.35"/>
<path class="st1" d="M1398.73,787.33l120.75,113.74l74.24-56.87l53.68-56.87c0,0,6.54-10.52,14.55-30.97
	c8.02-20.45-21.38-38.35-21.38-38.35s-74.82-70.81-89.52-85.89s0-36.27,0-36.27l22.77-19.74"/>
<polyline class="st1" points="1541.7,1063.28 1519.47,901.07 1677.41,1063.28 "/>
<path class="st1" d="M1459.1,844.2l-83.09,85.59c0,0-36.38,39.01-6.83,60.6l98.34,74.17"/>
<line class="st1" x1="1255.43" y1="884.29" x2="1357.85" y2="964.87"/>
<line class="st1" x1="1394.69" y1="910.55" x2="1536.43" y2="1039.93"/>
<line class="st1" x1="1381.41" y1="999.61" x2="1327.28" y2="1039.92"/>
<polyline class="st1" points="1143.15,1008.85 1211.4,924.04 1357.61,792.03 "/>
<path class="st1" d="M495.55,598.72c0,0-36.45-71.98,12.85-88.7l47.68-115.11l30.68-17.76"/>
<polyline class="st1" points="278.81,442.8 452.76,380.41 534.65,348.38 840.08,130.55 "/>
<line class="st1" x1="319.89" y1="534.87" x2="486.75" y2="459.58"/>
<line class="st1" x1="399.34" y1="499.02" x2="451.97" y2="623.92"/>
<path class="st1" d="M110.93,452.96l39.38,81.91c0,0,14.25,37.1,40.98,24.83s116.12-49.68,116.12-49.68"/>
<line class="st1" x1="162.17" y1="553.38" x2="255.13" y2="737.78"/>
<polyline class="st1" points="166.25,561.47 41.76,484.42 166.25,783.68 "/>
<path class="st1" d="M6.74,745.18l197.22-108.92c0,0,15.83,40.08,37.21,27.29s107.23-57.18,107.23-57.18"/>
<line class="st1" x1="55.95" y1="718.01" x2="104.01" y2="821.15"/>
<line class="st1" x1="41.76" y1="484.42" x2="6.74" y2="374.12"/>
<polyline class="st1" points="18.26,410.42 228.81,325.29 422.88,310.82 508.4,510.02 "/>
<path class="st1" d="M104.01,374.12l-36.1-76.62c0,0-25.37-32.45,18.05-53.83l91.61-38.83"/>
<path class="st1" d="M56.62,394.91c0,0-37.24-53.24,20.32-78.23l125.09-54.32L539.6,121.29"/>
<polyline class="st1" points="85.96,243.68 60.54,191.57 154.92,151.62 "/>
<line class="st1" x1="110.93" y1="170.24" x2="132.06" y2="224.14"/>
<line class="st1" x1="28.65" y1="443.11" x2="240.91" y2="353.74"/>
<polyline class="st1" points="228.81,325.29 482.31,215.05 499.04,273.3 "/>
<polyline class="st1" points="633.04,147.47 482.31,215.05 451.97,157.91 "/>
<polyline class="st1" points="553.29,183.23 578.13,237.44 638.58,274.83 686.91,350.09 "/>
<line class="st1" x1="490.54" y1="243.68" x2="565.71" y2="215.05"/>
<polyline class="st1" points="374.85,190.15 399.34,251.14 422.88,310.82 "/>
<path class="st1" d="M216.99,297.5l90.42-39.4c0,0,19.27-6.4,19.27-14.42s5.34-33.34,5.34-33.34"/>
<line class="st1" x1="307.41" y1="258.1" x2="388.5" y2="224.14"/>
<line class="st1" x1="467.09" y1="186.37" x2="601.04" y2="121.29"/>
<line class="st1" x1="662.75" y1="310.82" x2="740.53" y2="249.87"/>
<path class="st1" d="M1511.59,442.8l-141.58-218.66c7.3-4.51-114.58-102.85-114.58-102.85l-183.77,97.13"/>
<path class="st1" d="M1238.54,544.46l218.89-185.32c0,0,48.34-32.62,79-16.59l82.91,37.86l16.78,81.37l-62.3,114.32"/>
<path class="st1" d="M1536.43,204.85c-72.08-5.43-137.7,62.71-137.7,62.71l-248.67,206.47c16.27,20.52-3.86,52.92-3.86,52.92
	l-82.02,68.9c0,0-76.98,62.04-92.34,72.69c-15.35,10.64-27.4,6.28-27.4,6.28"/>
<line class="st1" x1="1469.3" y1="218.42" x2="1496.22" y2="338.12"/>
<path class="st1" d="M1480.59,394.91c0,0-27.08,23.81-51.13,41.41c-24.05,17.6,0,48.1,0,48.1l36.1,44.23l38.63,47.46"/>
<line class="st1" x1="1306.64" y1="584.53" x2="1387.48" y2="513.83"/>
<path class="st1" d="M1297.26,417.13c6.6-7.77,129.94-104.67,129.94-104.67"/>
<line class="st1" x1="1498.83" y1="497.22" x2="1679.3" y2="687.05"/>
<line class="st1" x1="1401.17" y1="589.45" x2="1492.26" y2="687.05"/>
<polyline class="st1" points="1213.37,320.95 1071.66,218.42 938.77,297.5 "/>
<path class="st0" d="M1071.66,219.85"/>
<line class="st1" x1="1071.66" y1="219.85" x2="1071.66" y2="405.35"/>
<line class="st1" x1="1139.58" y1="267.56" x2="1306.64" y2="163.56"/>
<path class="st1" d="M882.49,250.48l59.11-38.43c0,0,21.09-14.82,42.47,3.5l39.7,34.31"/>
<polyline class="st1" points="989.04,219.85 1082.06,168.85 1117.2,194.35 "/>
<path class="st1" d="M857.21,229.37c1.03,0.86,176.74-92.58,176.74-92.58l48.1,32.07l83.43-47.56"/>
<line class="st1" x1="633.04" y1="147.47" x2="716.87" y2="218.42"/>
<line class="st1" x1="171.56" y1="807.41" x2="171.56" y2="928.24"/>
<polyline class="st1" points="648.72,157.27 797.39,161 836.2,212.06 "/>
<path class="st1" d="M1679.3,320.95l-59.96,59.46l-30.27,28.95c0,0-9.95,12.47-3.72,20.49c6.24,8.02,3.72,29.73,3.72,29.73
	s-0.08,24.88-19.71,39.44s-57.75,11.63-57.75,11.63"/>
<line class="st1" x1="1536.43" y1="297.5" x2="1652.58" y2="347.45"/>
<line class="st1" x1="1536.43" y1="240.12" x2="1677.41" y2="288.22"/>
<line class="st1" x1="1594.5" y1="320.95" x2="1616.87" y2="267.56"/>
<line class="st1" x1="1575.02" y1="314.1" x2="1561.26" y2="353.89"/>
<path class="st1" d="M1536.43,163.56l69.26,22.22c0,0,28.3,3.54,19.74,42.66s-8.56,39.12-8.56,39.12"/>
<line class="st1" x1="1595.45" y1="670.36" x2="1632.9" y2="638.25"/>
<line class="st1" x1="1598.44" y1="528.64" x2="1677.41" y2="605.33"/>
<line class="st1" x1="1619.33" y1="492.57" x2="1677.41" y2="528.64"/>
<line class="st1" x1="1652.58" y1="513.22" x2="1632.9" y2="559.33"/>
<line class="st1" x1="1539.42" y1="539.93" x2="1475.72" y2="605.33"/>
<line class="st1" x1="76.95" y1="1064.56" x2="76.95" y2="1116.55"/>
<line class="st1" x1="1627.04" y1="197.19" x2="1663.33" y2="121.29"/>
<line class="st1" x1="1033.95" y1="136.79" x2="976.11" y2="93.74"/>
<line class="st1" x1="283.22" y1="228.44" x2="216.99" y2="53.4"/>
<polyline class="st1" points="425.65,170.24 398.86,108.55 442.5,1.32 "/>
<g>
</g>
<g>
</g>
<g>
</g>
<g>
</g>
<g>
</g>
<g>
</g>
</svg>
