<?xml version="1.0" encoding="utf-8"?>
<!-- Generator: Adobe Illustrator 26.0.2, SVG Export Plug-In . SVG Version: 6.00 Build 0)  -->
<svg version="1.1" id="Layer_1" xmlns="http://www.w3.org/2000/svg" xmlns:xlink="http://www.w3.org/1999/xlink" x="0px" y="0px"
	 viewBox="0 0 537.09 511.83" style="enable-background:new 0 0 537.09 511.83;" xml:space="preserve">
<g>
	<g>
		<path d="M232.13,435.94c-11.24-0.46-21.44,3.99-28.67,11.36l0.01-0.02c0,0-130.3-43.26-137.81-195.42l14.19,10.64
			c3.13,2.35,7.54-0.21,7.06-4.1L73.77,153.34c-0.49-3.93-5.49-5.29-7.91-2.16l-64.93,84.1c-2.41,3.12,0.15,7.6,4.06,7.11
			l24.33-3.06c0,0-10.36,174.07,163.25,243.57l0.66-2.15c3.24,17.67,18.7,31.07,37.31,31.07c21.66,0,39.08-18.14,37.91-40.05
			C267.42,452.45,251.47,436.72,232.13,435.94z"/>
	</g>
	<g>
		<path d="M141.97,111.46c6.25-9.36,7.77-20.38,5.24-30.39l0.01,0.01c0,0,104.8-88.7,238.6-15.86l-16.47,6.57
			c-3.63,1.45-3.75,6.55-0.18,8.16l96.52,43.52c3.61,1.63,7.38-1.93,5.96-5.63l-37.97-99.23c-1.41-3.68-6.57-3.83-8.18-0.24
			l-10.07,22.36c0,0-143.19-99.51-292.95,12.49l1.49,1.68C107.19,48.48,87.7,54.69,78,70.58c-11.28,18.49-4.87,42.81,14.44,53.22
			C109.48,132.98,131.22,127.56,141.97,111.46z"/>
	</g>
	<g>
		<path d="M465.32,197.91c5.13,10.01,14.01,16.71,23.99,19.38l-0.02,0c0,0,26.39,134.73-102.4,216.09l2.29-17.59
			c0.51-3.88-3.9-6.46-7.04-4.13l-85.03,63.08c-3.18,2.36-1.91,7.38,2.01,7.95l105.16,15.19c3.9,0.56,6.54-3.87,4.19-7.03
			l-14.62-19.69c0,0,156.67-76.56,131.82-261.91l-2.19,0.48c13.79-11.52,17.87-31.56,8.71-47.77
			c-10.65-18.86-35.01-25.11-53.51-13.32C462.35,159.05,456.49,180.68,465.32,197.91z"/>
	</g>
</g>
<g>
	<path d="M279.97,408.17c-87.48,0-158.64-71.17-158.64-158.64c0-87.48,71.17-158.64,158.64-158.64
		c87.48,0,158.64,71.17,158.64,158.64C438.62,337,367.45,408.17,279.97,408.17z M279.97,114.79c-74.29,0-134.73,60.44-134.73,134.73
		s60.44,134.73,134.73,134.73s134.73-60.44,134.73-134.73S354.26,114.79,279.97,114.79z"/>
</g>
<g>
	<circle cx="279.97" cy="249.52" r="44.77"/>
</g>
<g>
</g>
<g>
</g>
<g>
</g>
<g>
</g>
<g>
</g>
<g>
</g>
</svg>
