<?xml version="1.0" encoding="utf-8"?>
<!-- Generator: Adobe Illustrator 26.0.2, SVG Export Plug-In . SVG Version: 6.00 Build 0)  -->
<svg version="1.1" id="Layer_1" xmlns="http://www.w3.org/2000/svg" xmlns:xlink="http://www.w3.org/1999/xlink" x="0px" y="0px"
	 viewBox="0 0 212.85 437.11" style="enable-background:new 0 0 212.85 437.11;" xml:space="preserve">
<style type="text/css">
	.st0{fill:#595A5A;}
	.st1{fill:#ED1F24;}
	.st2{fill:#B51E40;}
	.st3{fill:#FBEA0F;}
	.st4{fill:#CFD829;}
	.st5{fill:#49B755;}
	.st6{fill:#108E4D;}
	.st7{fill:#7D7D7D;}
	.st8{fill:#FFFFFF;stroke:#000000;stroke-miterlimit:10;}
	.st9{fill:#B4B5B6;}
</style>
<g>
	<path d="M137.06,434.61c31.75,0,57.59-25.83,57.59-57.59V211.46c0-31.75-25.83-57.59-57.59-57.59s-57.59,25.83-57.59,57.59v165.56
		C79.47,408.77,105.31,434.61,137.06,434.61z"/>
	<path class="st0" d="M137.06,156.37c30.38,0,55.09,24.71,55.09,55.09v165.56c0,30.38-24.71,55.09-55.09,55.09
		c-30.38,0-55.09-24.71-55.09-55.09V211.46C81.97,181.08,106.68,156.37,137.06,156.37 M137.06,151.37
		c-33.19,0-60.09,26.9-60.09,60.09v165.56c0,33.19,26.9,60.09,60.09,60.09h0c33.19,0,60.09-26.9,60.09-60.09V211.46
		C197.15,178.27,170.25,151.37,137.06,151.37L137.06,151.37L137.06,151.37z"/>
</g>
<g>
	<circle class="st1" cx="137.06" cy="207.18" r="35.98"/>
	<path class="st2" d="M137.06,174.7c17.91,0,32.48,14.57,32.48,32.48s-14.57,32.48-32.48,32.48c-17.91,0-32.48-14.57-32.48-32.48
		S119.15,174.7,137.06,174.7 M137.06,167.7c-21.81,0-39.48,17.68-39.48,39.48s17.68,39.48,39.48,39.48
		c21.81,0,39.48-17.68,39.48-39.48S158.87,167.7,137.06,167.7L137.06,167.7z"/>
</g>
<g>
	<circle class="st3" cx="137.06" cy="294.24" r="35.98"/>
	<path class="st4" d="M137.06,261.75c17.91,0,32.48,14.57,32.48,32.48s-14.57,32.48-32.48,32.48c-17.91,0-32.48-14.57-32.48-32.48
		S119.15,261.75,137.06,261.75 M137.06,254.75c-21.81,0-39.48,17.68-39.48,39.48c0,21.81,17.68,39.48,39.48,39.48
		c21.81,0,39.48-17.68,39.48-39.48C176.55,272.43,158.87,254.75,137.06,254.75L137.06,254.75z"/>
</g>
<g>
	<circle class="st5" cx="137.06" cy="381.95" r="35.98"/>
	<path class="st6" d="M137.06,349.47c17.91,0,32.48,14.57,32.48,32.48s-14.57,32.48-32.48,32.48c-17.91,0-32.48-14.57-32.48-32.48
		S119.15,349.47,137.06,349.47 M137.06,342.47c-21.81,0-39.48,17.68-39.48,39.48s17.68,39.48,39.48,39.48
		c21.81,0,39.48-17.68,39.48-39.48S158.87,342.47,137.06,342.47L137.06,342.47z"/>
</g>
<polygon class="st0" points="61.27,174.34 212.85,174.34 200.58,141.13 73.54,141.13 "/>
<path class="st7" d="M106.26,141.13h61.59v-18.08c0-6.53-5.29-11.82-11.82-11.82h-37.96c-6.53,0-11.82,5.29-11.82,11.82V141.13z"/>
<path class="st8" d="M152.41,30.71"/>
<path class="st9" d="M41.18,0l65.08,0l15.44,0l15.35,0c8.48,0,15.35,6.87,15.35,15.35v15.35v15.35v65.17h-30.71V46.06h-0.09
	c0-8.48-6.87-15.35-15.35-15.35H41.18v0H0L0,0L41.18,0z"/>
<g>
</g>
<g>
</g>
<g>
</g>
<g>
</g>
<g>
</g>
<g>
</g>
</svg>
