<?xml version="1.0" encoding="utf-8"?>
<!-- Generator: Adobe Illustrator 26.0.2, SVG Export Plug-In . SVG Version: 6.00 Build 0)  -->
<svg version="1.1" id="Layer_1" xmlns="http://www.w3.org/2000/svg" xmlns:xlink="http://www.w3.org/1999/xlink" x="0px" y="0px"
	 viewBox="0 0 401.23 401.23" style="enable-background:new 0 0 401.23 401.23;" xml:space="preserve">
<style type="text/css">
	.st0{fill:#FFFFFF;}
</style>
<path class="st0" d="M251.53,200.61L397.08,55.06c5.53-5.53,5.53-14.48,0-20.01l-30.9-30.9c-5.53-5.53-14.48-5.53-20.01,0
	L200.61,149.7L55.06,4.14c-5.53-5.53-14.48-5.53-20.01,0l-30.9,30.9c-5.53,5.53-5.53,14.48,0,20.01L149.7,200.61L4.14,346.17
	c-5.53,5.53-5.53,14.48,0,20.01l30.9,30.9c5.53,5.53,14.48,5.53,20.01,0l145.56-145.56l145.56,145.56c5.53,5.53,14.48,5.53,20.01,0
	l30.9-30.9c5.53-5.53,5.53-14.48,0-20.01L251.53,200.61z"/>
<g>
</g>
<g>
</g>
<g>
</g>
<g>
</g>
<g>
</g>
<g>
</g>
</svg>
